<svg width="474" height="499" viewBox="0 0 474 499" fill="none" xmlns="http://www.w3.org/2000/svg">
<ellipse cx="237" cy="249.5" rx="237" ry="249.5" fill="#8DE186"/>
<mask id="mask0" mask-type="alpha" maskUnits="userSpaceOnUse" x="0" y="0" width="474" height="490">
<ellipse cx="237" cy="245" rx="237" ry="245" fill="#756EBC"/>
</mask>
<g mask="url(#mask0)">
<path fill-rule="evenodd" clip-rule="evenodd" d="M422.705 286.845L288.315 244.389C279.962 241.75 275.447 232.878 278.23 224.572V224.572C281.013 216.266 276.498 207.394 268.145 204.755L267.346 204.503C258.994 201.864 254.478 192.992 257.261 184.686V184.686C260.044 176.381 269.071 171.787 277.424 174.425L346.861 196.362L336.784 193.178C329.459 190.864 324.179 184.583 323.199 177.016L315.834 120.157L319.513 121.354C319.552 121.366 319.594 121.345 319.607 121.306V121.306C319.62 121.268 319.662 121.246 319.7 121.259L454.02 163.693C462.373 166.332 466.888 175.204 464.105 183.51L462.129 189.409C460.437 194.456 454.951 197.248 449.875 195.645V195.645C444.799 194.041 439.312 196.833 437.621 201.881L435.644 207.78C432.862 216.085 437.377 224.958 445.729 227.596L481.251 238.819C489.604 241.457 494.119 250.329 491.336 258.635V258.635C488.553 266.941 479.526 271.535 471.174 268.896L401.736 246.959L355.854 232.464C345.322 229.137 339.628 217.949 343.138 207.476L346.861 196.362M315.818 120.032L315.834 120.157L302.856 115.937L315.818 120.032ZM315.818 120.032L311.908 89.8486C311.524 86.8884 311.821 83.8715 312.776 81.0219L315.049 74.2375C318.558 63.7641 329.942 57.9711 340.474 61.2986L370.016 70.6314L336.527 60.0516C328.174 57.4128 323.659 48.5406 326.442 40.2349V40.2349C329.225 31.9292 338.252 27.3352 346.605 29.974L387.447 42.8768L423.096 54.1391C430.255 56.4009 434.125 64.0057 431.74 71.1248V71.1248C429.355 78.244 433.225 85.8488 440.384 88.1106L448.246 90.5942C456.598 93.233 461.114 102.105 458.331 110.411V110.411C455.548 118.717 446.521 123.311 438.168 120.672L421.664 115.458C419.278 114.704 416.698 116.017 415.903 118.39V118.39L412.18 129.503C408.67 139.977 397.287 145.77 386.754 142.442L315.818 120.032ZM401.736 246.959V246.959C401.736 246.959 401.736 246.959 401.736 246.959L417.259 251.864C425.833 254.572 430.467 263.679 427.611 272.204L422.705 286.845" fill="#96AC58"/>
<path fill-rule="evenodd" clip-rule="evenodd" d="M284.308 357.198C291.439 352.11 301.443 353.694 306.653 360.736L366.309 441.365C371.519 448.407 369.962 458.239 362.831 463.327V463.327C355.701 468.414 345.696 466.83 340.486 459.788L321.815 434.552L356.792 481.826C362.002 488.867 360.445 498.7 353.314 503.787L340.42 512.986C340.41 512.993 340.397 512.991 340.389 512.981V512.981C340.382 512.972 340.369 512.969 340.359 512.976L302.515 539.37C294.655 544.852 283.74 543.064 278.042 535.363V535.363L269.397 523.432C269.373 523.399 269.326 523.391 269.293 523.415V523.415C269.26 523.438 269.253 523.484 269.277 523.516L278.042 535.363L269.518 542.04C260.553 549.063 247.403 547.276 240.624 538.114L207.575 493.447C202.365 486.405 203.922 476.572 211.053 471.485V471.485C218.184 466.398 219.741 456.565 214.531 449.524L200.144 430.078C194.934 423.037 196.491 413.204 203.621 408.117L207.43 405.4C212.457 401.813 213.555 394.881 209.882 389.916V389.916C206.209 384.952 207.307 378.02 212.334 374.433L216.143 371.716C223.273 366.628 233.277 368.213 238.488 375.254L252.01 393.531L307.577 468.633L261.879 406.87L226.902 359.596C221.692 352.554 223.249 342.722 230.38 337.634V337.634C237.511 332.547 247.515 334.131 252.725 341.173L261.963 353.659C267.173 360.701 277.177 362.285 284.308 357.198V357.198Z" fill="#96AC58"/>
<path fill-rule="evenodd" clip-rule="evenodd" d="M12.2342 110.043C3.36274 116.641 -9.05636 110.407 -8.87703 99.4451L-8.04529 48.6066C-7.93311 41.7498 -2.28287 36.1836 4.57489 36.1742L7.65919 36.17C12.8135 36.163 17.0603 31.9794 17.1446 26.8257V26.8257C17.2289 21.6721 21.4757 17.4885 26.6301 17.4814L42.1165 17.4603C42.1247 17.4603 42.1313 17.4669 42.1312 17.4752V17.4752C42.131 17.4833 42.1375 17.49 42.1457 17.49L83.6508 17.8189C88.1346 17.8545 91.8515 14.2262 91.9249 9.74212V9.74212C91.9977 5.28737 95.6686 1.67115 100.124 1.66506L104.474 1.65911C111.332 1.64974 116.8 7.20072 116.688 14.0576L116.67 15.1483C116.548 22.6076 122.497 28.6462 129.957 28.636L141.283 28.6205L146.117 28.6139C157.163 28.5988 165.971 37.5397 165.79 48.5839L165.639 57.809L165.567 62.2292L165.263 80.8098C165.167 86.6871 160.324 91.458 154.446 91.4661V91.4661C148.568 91.4741 143.723 96.3261 143.627 102.203V102.203C143.529 108.171 138.611 113.097 132.642 113.105L129.421 113.11C123.453 113.118 118.694 108.287 118.791 102.319L118.91 95.0618C118.942 93.1027 117.38 91.5167 115.421 91.5194V91.5194L110.586 91.526C99.5407 91.5411 90.7329 82.6002 90.9136 71.556L91.5991 29.6525L91.32 39.6809C91.3191 39.7129 91.3445 39.739 91.3766 39.739V39.739C91.4083 39.7389 91.4336 39.7646 91.4331 39.7964L90.1668 117.201C90.0546 124.058 84.4043 129.624 77.5466 129.633L72.7431 129.64C68.5382 129.645 65.0738 133.058 65.005 137.263V137.263C64.9362 141.467 61.4717 144.88 57.2669 144.886L52.4634 144.892C45.6056 144.902 40.1373 139.351 40.2494 132.494L40.4762 118.634V118.634C40.5783 112.395 35.6029 107.344 29.3634 107.353L20.2666 107.365" fill="#96AC58"/>
</g>
</svg>
