<svg width="474" height="499" viewBox="0 0 474 499" fill="none" xmlns="http://www.w3.org/2000/svg">
<ellipse cx="237" cy="249.5" rx="237" ry="249.5" fill="#5685B1"/>
<mask id="mask0" mask-type="alpha" maskUnits="userSpaceOnUse" x="0" y="0" width="474" height="490">
<ellipse cx="237" cy="245" rx="237" ry="245" fill="#756EBC"/>
</mask>
<g mask="url(#mask0)">
<path fill-rule="evenodd" clip-rule="evenodd" d="M154.08 571.487C151.297 579.793 142.27 584.387 133.917 581.748L38.2773 551.534C29.9247 548.895 25.4096 540.023 28.1925 531.717L28.8767 529.675C31.2818 522.497 27.3797 514.829 20.1612 512.549V512.549C12.9427 510.269 9.04065 502.601 11.4457 495.423L17.1619 478.363C17.1657 478.352 17.1782 478.345 17.1897 478.349V478.349C17.2012 478.352 17.2136 478.346 17.2175 478.335L34.0889 429.712C36.249 423.487 32.8838 416.784 26.6014 414.799V414.799C20.3662 412.83 16.9957 406.206 19.0732 400.006L20.3506 396.194C23.1335 387.888 32.1607 383.294 40.5133 385.933L48.1007 388.33C56.4533 390.969 65.4805 386.375 68.2634 378.069V378.069C71.0464 369.764 80.0735 365.17 88.4261 367.808L114.233 375.961L88.4262 367.808C80.0736 365.17 75.5584 356.297 78.3414 347.992V347.992C81.1243 339.686 90.1514 335.092 98.5041 337.731L130.502 347.84L158.469 356.675C165.629 358.937 169.499 366.542 167.113 373.661V373.661C164.728 380.78 168.598 388.385 175.758 390.646L177.939 391.336C186.291 393.974 190.806 402.846 188.023 411.152V411.152C185.24 419.458 176.213 424.052 167.861 421.413L157.038 417.994C154.651 417.24 152.072 418.552 151.277 420.925V420.925L147.553 432.039C144.044 442.513 132.66 448.306 122.128 444.978L54.5015 423.614L68.507 428.192C68.5459 428.205 68.5882 428.184 68.6012 428.145V428.145C68.6141 428.107 68.6559 428.085 68.6946 428.098L179.388 463.068C187.741 465.707 192.256 474.579 189.473 482.885L187.986 487.321C186.024 493.176 189.208 499.431 195.096 501.292V501.292C200.985 503.152 204.168 509.407 202.206 515.263L200.72 519.699C197.937 528.005 188.91 532.599 180.557 529.96L158.878 523.111L69.7939 494.968L88.3674 500.835L143.056 518.113L199.131 535.828C207.483 538.467 211.999 547.339 209.216 555.644V555.644C206.433 563.95 197.406 568.544 189.053 565.905L174.242 561.226C165.89 558.588 156.863 563.182 154.08 571.487V571.487Z" fill="#163687"/>
<path fill-rule="evenodd" clip-rule="evenodd" d="M428.308 85.1976C435.439 80.1102 445.443 81.6945 450.653 88.7362L510.309 169.365C515.519 176.407 513.962 186.239 506.831 191.327V191.327C499.701 196.414 489.696 194.83 484.486 187.788L465.815 162.552L500.792 209.826C506.002 216.867 504.445 226.7 497.314 231.787L484.42 240.986C484.41 240.993 484.397 240.991 484.389 240.981V240.981C484.382 240.972 484.369 240.969 484.359 240.976L446.515 267.37C438.655 272.852 427.74 271.064 422.042 263.363V263.363L413.397 251.432C413.373 251.399 413.326 251.391 413.293 251.415V251.415C413.26 251.438 413.253 251.484 413.277 251.516L422.042 263.363L413.518 270.04C404.553 277.063 391.403 275.276 384.624 266.114L351.575 221.447C346.365 214.405 347.922 204.572 355.053 199.485V199.485C362.184 194.398 363.741 184.565 358.531 177.524L344.144 158.078C338.934 151.037 340.491 141.204 347.621 136.117L351.43 133.4C356.457 129.813 357.555 122.881 353.882 117.916V117.916C350.209 112.952 351.307 106.02 356.334 102.433L360.143 99.7157C367.273 94.6284 377.277 96.2127 382.488 103.254L396.01 121.531L451.577 196.633L405.879 134.87L370.902 87.5959C365.692 80.5543 367.249 70.7217 374.38 65.6344V65.6344C381.511 60.547 391.515 62.1313 396.725 69.173L405.963 81.659C411.173 88.7006 421.177 90.2849 428.308 85.1976V85.1976Z" fill="#163687"/>
<path fill-rule="evenodd" clip-rule="evenodd" d="M5.58106 184.423C-3.17192 184.435 -10.1516 177.35 -10.0084 168.598L-8.36564 68.1893C-8.22246 59.4374 -1.01069 52.333 7.7423 52.321V52.321C16.4953 52.309 23.4749 59.3941 23.3317 68.1459L21.689 168.555C21.5458 177.306 14.334 184.411 5.58106 184.423V184.423ZM117.676 113.743C117.495 124.787 126.303 133.728 137.349 133.713L149.046 133.697V133.697C151.547 133.694 153.541 135.718 153.5 138.218L153.314 149.606C153.171 158.358 160.15 165.443 168.903 165.431V165.431C177.656 165.419 184.868 158.315 185.011 149.563L185.049 147.23C185.172 139.729 191.354 133.639 198.856 133.629V133.629C206.359 133.619 212.54 127.529 212.663 120.028L213.143 90.6593L213.25 84.1624L213.625 61.2086C213.806 50.1644 204.998 41.2236 193.952 41.2387L182.255 41.2547L170.412 41.2708C159.447 41.2858 150.703 32.4102 150.882 21.4466L150.948 17.4419C151.091 8.69003 144.112 1.60496 135.359 1.61693L131.358 1.6224C124.815 1.63135 119.423 6.94271 119.316 13.4857V13.4857C119.208 20.0782 113.739 25.4099 107.147 25.3484L55.7581 24.8688C55.7461 24.8687 55.7366 24.859 55.7368 24.8469V24.8469C55.737 24.8348 55.7273 24.825 55.7152 24.8251L39.8885 24.8467C31.1355 24.8587 23.9237 31.9631 23.7805 40.7149L21.8785 156.97L20.9155 215.837C20.7723 224.589 27.7519 231.674 36.5049 231.662L42.6071 231.653C47.9899 231.646 52.425 227.277 52.513 221.895V221.895C52.6011 216.513 57.0361 212.144 62.419 212.136L73.1794 212.122C79.3597 212.113 84.4518 207.097 84.5529 200.917V200.917C84.654 194.738 89.7461 189.722 95.9263 189.713L100.585 189.707C109.338 189.695 116.549 182.59 116.693 173.839L118.593 57.6568C118.594 57.6162 118.562 57.5834 118.521 57.5834V57.5834C118.48 57.5835 118.448 57.5502 118.449 57.5094L118.837 42.7588L117.676 113.743Z" fill="#163687"/>
</g>
</svg>
