<svg width="486" height="500" viewBox="0 0 486 500" fill="none" xmlns="http://www.w3.org/2000/svg">
<ellipse cx="237" cy="249.5" rx="237" ry="249.5" fill="#D35925"/>
<mask id="mask0" mask-type="alpha" maskUnits="userSpaceOnUse" x="12" y="10" width="474" height="490">
<ellipse cx="249" cy="255" rx="237" ry="245" fill="#D35925"/>
</mask>
<g mask="url(#mask0)">
<path fill-rule="evenodd" clip-rule="evenodd" d="M353.954 190.745C361.085 185.657 371.089 187.242 376.299 194.283L435.955 274.912C441.165 281.954 439.608 291.786 432.477 296.874L430.724 298.124C424.561 302.521 423.216 311.019 427.718 317.104C432.221 323.19 430.875 331.687 424.713 336.084L410.066 346.533C410.056 346.54 410.042 346.538 410.035 346.528C410.028 346.519 410.014 346.516 410.004 346.523L367.791 375.965C362.386 379.734 361.172 387.136 365.091 392.432C368.98 397.689 367.818 405.028 362.495 408.826L359.222 411.161C352.091 416.249 342.087 414.664 336.877 407.623L332.144 401.226C326.934 394.184 316.93 392.6 309.799 397.688C302.668 402.775 292.664 401.191 287.454 394.149L271.357 372.392L287.454 394.149C292.664 401.191 291.107 411.023 283.976 416.11C276.845 421.198 266.841 419.613 261.631 412.572L241.672 385.596L224.227 362.018C219.762 355.982 221.096 347.555 227.208 343.194C233.32 338.833 234.655 330.406 230.189 324.37L228.829 322.531C223.619 315.489 225.176 305.657 232.307 300.57C239.438 295.482 249.442 297.067 254.652 304.108L261.403 313.233C262.891 315.245 265.75 315.697 267.787 314.244L277.329 307.436C286.321 301.021 298.936 303.019 305.506 311.898L347.688 368.911L339.043 356.979C339.019 356.946 338.972 356.938 338.939 356.962C338.906 356.985 338.859 356.978 338.835 356.945L269.789 263.625C264.579 256.584 266.136 246.751 273.267 241.664L277.076 238.947C282.103 235.36 283.201 228.428 279.528 223.463C275.855 218.499 276.952 211.567 281.98 207.98L285.788 205.263C292.919 200.175 302.923 201.76 308.133 208.801L321.656 227.078L377.223 302.18L365.637 286.522L331.525 240.417L296.548 193.143C291.338 186.101 292.895 176.269 300.026 171.181C307.157 166.094 317.161 167.678 322.371 174.72L331.609 187.206C336.819 194.248 346.823 195.832 353.954 190.745Z" fill="#F10B5E"/>
<path fill-rule="evenodd" clip-rule="evenodd" d="M328.954 -90.097C336.085 -95.1844 346.089 -93.6001 351.299 -86.5584L410.955 -5.92944C416.165 1.11222 414.608 10.9447 407.477 16.0321C400.346 21.1194 390.342 19.5351 385.132 12.4935L366.46 -12.7425L401.437 34.5312C406.647 41.5729 405.09 51.4054 397.96 56.4928L385.066 65.6915C385.056 65.6986 385.042 65.6964 385.035 65.6866C385.028 65.677 385.014 65.6748 385.004 65.6816L347.161 92.0754C339.301 97.5572 328.386 95.7699 322.687 88.0679L314.043 76.1371C314.019 76.104 313.972 76.0963 313.939 76.1201C313.906 76.1437 313.898 76.1892 313.923 76.2219L322.687 88.0679L314.164 94.7451C305.199 101.768 292.048 99.9817 285.269 90.8195L252.221 46.1521C247.011 39.1104 248.568 29.2779 255.699 24.1905C262.829 19.1032 264.386 9.27066 259.176 2.229L244.789 -17.2163C239.579 -24.2579 241.136 -34.0904 248.267 -39.1778L252.076 -41.895C257.103 -45.4817 258.201 -52.4138 254.528 -57.3783C250.855 -62.3428 251.952 -69.275 256.98 -72.8617L260.788 -75.5788C267.919 -80.6662 277.923 -79.0819 283.133 -72.0402L296.656 -53.7635L352.223 21.3388L306.525 -40.4249L271.548 -87.6987C266.338 -94.7403 267.895 -104.573 275.026 -109.66C282.157 -114.748 292.161 -113.163 297.371 -106.122L306.609 -93.6356C311.819 -86.594 321.823 -85.0097 328.954 -90.097Z" fill="#F10B5E"/>
<path fill-rule="evenodd" clip-rule="evenodd" d="M-29.3816 478.668C-36.2845 473.286 -37.419 463.405 -31.9156 456.599L31.2244 378.509C36.7278 371.703 46.7851 370.548 53.688 375.93C60.5909 381.312 61.7254 391.193 56.222 397.999L-6.918 476.088C-12.4214 482.895 -22.4787 484.049 -29.3816 478.668ZM102.46 492.031C95.5153 500.62 96.947 513.088 105.658 519.88L114.883 527.072C116.855 528.61 117.179 531.433 115.607 533.378L108.446 542.234C102.942 549.041 104.077 558.921 110.98 564.303C117.883 569.685 127.94 568.53 133.443 561.724L134.91 559.91C139.628 554.076 148.248 553.086 154.165 557.699C160.082 562.312 168.702 561.322 173.419 555.488L191.887 532.648L195.972 527.595L210.407 509.744C217.351 501.155 215.92 488.686 207.209 481.894L197.984 474.702L188.644 467.42C179.996 460.678 178.575 448.3 185.469 439.774L187.988 436.659C193.491 429.853 192.357 419.972 185.454 414.59L182.299 412.131C177.139 408.107 169.62 408.97 165.505 414.059C161.36 419.186 153.767 420.018 148.612 415.909L108.423 383.879C108.414 383.871 108.413 383.858 108.42 383.848C108.428 383.839 108.426 383.825 108.417 383.818L95.9351 374.086C89.0322 368.704 78.9749 369.859 73.4715 376.666L0.36665 467.079L-36.6505 512.86C-42.1539 519.667 -41.0194 529.547 -34.1165 534.929L-29.3042 538.681C-25.0591 541.991 -18.8741 541.281 -15.4897 537.095C-12.1052 532.909 -5.92023 532.199 -1.67514 535.509L6.8109 542.125C11.6849 545.925 18.7861 545.11 22.672 540.304C26.5578 535.498 33.6591 534.683 38.533 538.483L42.2067 541.347C49.1096 546.729 59.1669 545.574 64.6703 538.768L137.729 448.412C137.754 448.38 137.749 448.334 137.717 448.309C137.685 448.284 137.68 448.238 137.706 448.206L147.097 436.825L102.46 492.031Z" fill="#F10B5E"/>
</g>
</svg>

